<?xml version="1.0" encoding="utf-8"?>
<!-- Generator: Adobe Illustrator 26.3.1, SVG Export Plug-In . SVG Version: 6.00 Build 0)  -->
<svg version="1.1" id="Layer_1" xmlns="http://www.w3.org/2000/svg" xmlns:xlink="http://www.w3.org/1999/xlink" x="0px" y="0px"
	 viewBox="0 0 609.45 793.7" style="enable-background:new 0 0 609.45 793.7;" xml:space="preserve">
<style type="text/css">
	.st0{fill-rule:evenodd;clip-rule:evenodd;fill:#264E63;}
	.st1{fill-rule:evenodd;clip-rule:evenodd;fill:#61A60E;}
	
		.st2{clip-path:url(#SVGID_00000084498728913116354080000009625438103485069955_);fill:url(#SVGID_00000114788501844740428270000005276237176296109739_);}
	
		.st3{clip-path:url(#SVGID_00000059289805852554549840000016185833577174612133_);fill:url(#SVGID_00000046340111244110236140000010780971916518288284_);}
</style>
<g>
	<polygon class="st0" points="561.03,421.54 567.39,407.48 553.82,373.77 560.7,373.77 570.75,398.96 581.49,373.77 588.39,373.77 
		567.9,421.54 	"/>
	<path class="st1" d="M297.38,409.28v-19.62c0-3.67-1.02-6.68-2.88-8.48c-2.47-2.41-5.67-2.59-6.59-2.59
		c-0.92,0-4.12,0.19-6.59,2.59c-1.08,1.05-2.89,3.54-2.82,8.47v19.64h-6.46v-21.87c0.26-4.54,2.33-8.4,4.15-10.09
		c1.67-1.55,5.14-4.77,11.35-4.77c0.13,0,0.26,0,0.39,0c4.92,0.11,8.43,1.48,11.4,4.44c2.95,2.88,4.51,7.26,4.51,12.66v19.62H297.38
		z"/>
	<path class="st1" d="M212.45,409.19c-9.97,0-18.08-8.14-18.08-18.14c0-9.88,8.08-18.07,18.01-18.26c7.71,0.07,13.06,4.63,15.5,8.88
		c1.98,3.17,2.88,6.85,2.65,10.93l-0.06,0.98h-29.61c0.85,5.36,5.97,9.76,11.52,9.76c3.73-0.08,6.98-1.57,9.13-4.22l0.18-0.22
		l7.22-0.19l-0.95,1.6C224.69,405.79,218.75,409.19,212.45,409.19 M223.96,387.74c-1.62-6.25-7.02-9.1-11.51-9.1
		c-4.53,0-9.94,2.86-11.47,9.1H223.96z"/>
	<path class="st1" d="M250.96,409.19c-9.97,0-18.08-8.14-18.08-18.14c0-9.88,8.08-18.07,18.01-18.26c7.71,0.07,13.06,4.63,15.5,8.88
		c1.98,3.17,2.88,6.85,2.65,10.93l-0.06,0.98h-29.61c0.85,5.36,5.97,9.76,11.52,9.76c3.73-0.08,6.98-1.57,9.13-4.22l0.18-0.22
		l7.22-0.19l-0.95,1.6C263.2,405.79,257.26,409.19,250.96,409.19 M262.47,387.74c-1.62-6.25-7.02-9.1-11.51-9.1
		c-4.53,0-9.94,2.86-11.47,9.1H262.47z"/>
	<path class="st1" d="M178.74,409.36v-22.22c0.09-4.32,2.05-7.74,3.85-9.5c2.6-2.53,6.76-4.28,10.87-4.56l0.91-0.07v6.26l-0.78,0.07
		c-2.91,0.24-5.22,1.28-6.69,3.02c-1.4,1.75-2.15,3.98-2.15,6.42v20.57H178.74z"/>
	<path class="st1" d="M170.18,379.64c-4.45-5.55-10.31-6.44-13.46-6.44c-9.09,0-18.05,7.32-18.05,18.3
		c0,10.87,8.97,17.93,18.05,17.93c4.6,0,9.78-1.84,12.64-5.96l0.07,1.54c0,9.01-6.28,12.14-11.78,12.14
		c-7.94,0-11.16-5.53-12.35-8.5h-5.42l0.16,0.54c3.16,10.82,12.79,12.7,17.67,12.7c1.37,0,9.33-0.3,13.72-6.4
		c1.59-2.13,2.38-4.36,2.77-6.52c0.39-2.14,0.39-4.21,0.39-6.06v-9.54C174.6,387.36,173.07,383.11,170.18,379.64 M156.72,404.7
		c-7.39,0-12.89-6.2-12.89-13.32c0-7.19,5.51-13.44,12.89-13.44c7.32,0,12.95,6.26,12.95,13.44
		C169.67,396.96,165.35,404.7,156.72,404.7"/>
	<path class="st0" d="M585.43,419.79c-1.09,1.09-2.4,1.64-3.94,1.64c-1.54,0-2.86-0.55-3.96-1.64c-1.09-1.09-1.63-2.42-1.63-3.97
		c0-0.86,0.17-1.65,0.53-2.37c0.35-0.75,0.85-1.39,1.49-1.92c1.04-0.86,2.21-1.29,3.5-1.29c0.86,0,1.63,0.16,2.33,0.49
		c0.99,0.43,1.79,1.12,2.39,2.05c0.6,0.94,0.91,1.95,0.91,3.04C587.06,417.37,586.52,418.7,585.43,419.79 M582.35,416.43l1.96,2.52
		c0.92-0.94,1.33-1.95,1.33-3.13c0-0.63-0.16-1.28-0.48-1.96c-0.32-0.63-0.73-1.13-1.25-1.5c-0.73-0.52-1.55-0.78-2.46-0.78
		c-1.13,0-2.09,0.41-2.9,1.25c-0.82,0.84-1.22,1.83-1.22,2.99c0,1.18,0.41,2.19,1.22,3.03c0.81,0.83,1.79,1.25,2.94,1.25
		c1.04,0,1.94-0.34,2.71-1.03h-1.76l-1.47-1.96v1.96h-1.58v-6.45h1.42c0.86,0,1.53,0.15,1.97,0.5c0.48,0.39,0.72,0.9,0.72,1.53
		c0,0.42-0.13,0.82-0.39,1.17C582.91,416.09,582.66,416.3,582.35,416.43 M580.95,415.28c0.79,0,1.02-0.26,1.02-0.64
		c0-0.34-0.21-0.58-0.98-0.58L580.95,415.28z"/>
	<path class="st0" d="M500.5,410.38c-10.78,0-19.22-8.28-19.22-18.85c0-9.21,7.19-18.73,19.22-18.73c4.82,0,11.31,1.92,15.08,7.31
		c2.34,3.26,3.48,6.92,3.58,11.5v17.74h-6.46v-3.86C508.27,409.87,502.79,410.38,500.5,410.38 M500.5,378.83
		c-6.34,0-12.76,4.42-12.76,12.88c0,7.32,5.37,12.64,12.76,12.64c6.98,0,12.45-5.58,12.45-12.7
		C512.95,384.58,507.37,378.83,500.5,378.83"/>
	<path class="st0" d="M547.99,409.57v-19.65c0-3.68-1.02-6.69-2.88-8.49c-2.48-2.41-5.68-2.6-6.6-2.6c-0.92,0-4.12,0.19-6.6,2.6
		c-1.87,1.81-2.88,4.83-2.82,8.48v19.67h-6.46v-21.9c0.25-4.54,2.33-8.42,4.15-10.11c1.67-1.55,5.14-4.77,11.36-4.77
		c0.13,0,0.26,0,0.4,0c4.92,0.11,8.44,1.48,11.41,4.45c2.95,2.88,4.51,7.26,4.51,12.67v19.65H547.99z"/>
	<path class="st0" d="M442.56,420.09l0-28.98c0.1-4.47,1.21-8.03,3.49-11.2c3.67-5.24,9.98-7.1,14.67-7.1
		c11.7,0,18.69,9.26,18.69,18.21c0,10.28-8.21,18.33-18.69,18.33c-2.22,0-7.55-0.49-11.87-4.75v15.5H442.56z M460.71,378.66
		c-6.67,0-12.11,5.59-12.11,12.47c0,6.92,5.32,12.35,12.11,12.35c7.19,0,12.41-5.17,12.41-12.29
		C473.12,382.96,466.87,378.66,460.71,378.66"/>
	<path class="st0" d="M432.82,409.57v-20.64c0-3.69-0.7-5.24-1.41-6.51c-1.36-2.31-3.75-3.59-6.72-3.59c-2.97,0-5.36,1.28-6.73,3.61
		c-0.7,1.26-1.4,2.81-1.4,6.5v20.64h-6.46v-20.64c0-3.69-0.69-5.24-1.41-6.51c-1.36-2.31-3.76-3.59-6.73-3.59
		c-2.97,0-5.36,1.28-6.73,3.61c-0.7,1.26-1.4,2.81-1.4,6.5v20.64h-6.46v-21.66c0.05-3.17,0.61-5.83,1.67-7.91
		c0.36-0.71,0.78-1.35,1.25-1.92c0.26-0.31,0.47-0.53,0.63-0.68c0.05-0.05,0.09-0.1,0.13-0.13c2.5-2.91,6.17-4.43,10.9-4.48h0.11
		c2.83,0,8.2,1.18,11.26,5.47c3.07-4.29,8.49-5.47,11.36-5.47c5.42,0,14.59,3.29,14.59,15.64v21.14H432.82z"/>
	<path class="st0" d="M365.74,409.18c-9.79,0-18.07-8.22-18.07-17.95c0-11.38,9.38-18.43,18.07-18.43c9.86,0,18.19,8.33,18.19,18.19
		C383.93,400.85,375.6,409.18,365.74,409.18 M365.8,378.63c-7.33,0-11.88,6.5-11.88,12.53c0,6.71,5.33,12.17,11.88,12.17
		c5.84,0,11.87-4.69,11.87-12.53C377.68,382.5,370.59,378.63,365.8,378.63"/>
	<path class="st0" d="M327.62,409.57c-10.55,0-18.81-8.05-18.81-18.33c0-10.17,8.44-18.45,18.81-18.45c6.17,0,13.98,3.01,17.4,11.47
		l0.58,1.44h-6.84l-0.18-0.33c-2.22-4.18-6.27-6.67-10.85-6.67c-6.2,0-12.61,4.65-12.61,12.43c0,7.03,5.54,12.55,12.61,12.55
		c6.78,0,9.76-4.3,10.73-6.14l0.17-0.32l7.15-0.28l-0.81,1.57C341.2,405.85,335.36,409.57,327.62,409.57"/>
	<g>
		<defs>
			<path id="SVGID_1_" d="M22.21,397.45c0.11,19.31,19.38,30.49,32.71,28.83c11.33-1.42,16.16-9.49,16.06-9.59
				c-20.46-19.99-3.57-50.67,18.08-50.67c21.65,0,29.37,17.75,29.37,17.75c-5.94-20.49-24.62-35.52-47.02-35.52
				C44.24,348.25,22.05,370.28,22.21,397.45"/>
		</defs>
		<clipPath id="SVGID_00000096045098582756758600000008473482560205366958_">
			<use xlink:href="#SVGID_1_"  style="overflow:visible;"/>
		</clipPath>
		
			<radialGradient id="SVGID_00000031897025992894678800000008172999186395984540_" cx="-90.0156" cy="702.9149" r="1.0008" gradientTransform="matrix(43.8374 0 0 -43.8374 4016.2944 31201.2891)" gradientUnits="userSpaceOnUse">
			<stop  offset="0" style="stop-color:#D4E8BE"/>
			<stop  offset="0.1834" style="stop-color:#A8C098"/>
			<stop  offset="0.5811" style="stop-color:#527954"/>
			<stop  offset="1" style="stop-color:#003F1B"/>
		</radialGradient>
		
			<rect x="22.05" y="348.25" style="clip-path:url(#SVGID_00000096045098582756758600000008473482560205366958_);fill:url(#SVGID_00000031897025992894678800000008172999186395984540_);" width="96.38" height="79.7"/>
	</g>
	<g>
		<defs>
			<path id="SVGID_00000155139347669850050990000016203433138569159816_" d="M87.4,368.16c-11.33,1.41-16.75,8.94-16.65,9.04
				c20.22,19.99,4.05,51.39-17.6,51.39c-21.65,0-29.26-17.91-29.26-17.91c5.95,20.49,24.62,35.52,47.02,35.52
				c27.17,0,49.36-22.04,49.2-49.21C120,378.95,103.17,368,90.09,368C89.17,368,88.27,368.05,87.4,368.16"/>
		</defs>
		<clipPath id="SVGID_00000120540584882469355480000007332964357813234837_">
			<use xlink:href="#SVGID_00000155139347669850050990000016203433138569159816_"  style="overflow:visible;"/>
		</clipPath>
		
			<radialGradient id="SVGID_00000161629507052146560080000008257694640258675099_" cx="-90.0253" cy="702.9011" r="0.999" gradientTransform="matrix(43.8373 0 0 -43.8373 4018.5369 31220.3789)" gradientUnits="userSpaceOnUse">
			<stop  offset="0" style="stop-color:#74CFEC"/>
			<stop  offset="0.1446" style="stop-color:#67B3D2"/>
			<stop  offset="0.4558" style="stop-color:#4A7EA2"/>
			<stop  offset="0.9065" style="stop-color:#203E6B"/>
			<stop  offset="0.9683" style="stop-color:#1C3664"/>
			<stop  offset="1" style="stop-color:#1C3664"/>
		</radialGradient>
		
			<rect x="23.88" y="368" style="clip-path:url(#SVGID_00000120540584882469355480000007332964357813234837_);fill:url(#SVGID_00000161629507052146560080000008257694640258675099_);" width="96.38" height="78.2"/>
	</g>
</g>
</svg>
