<svg width="20" height="18" viewBox="0 0 20 18" fill="none" xmlns="http://www.w3.org/2000/svg">
<path d="M19 3.75H8.37109C8.2159 4.18852 7.92861 4.56816 7.54876 4.83667C7.16891 5.10518 6.71517 5.24936 6.25 5.24936C5.78483 5.24936 5.33109 5.10518 4.95124 4.83667C4.57139 4.56816 4.2841 4.18852 4.12891 3.75H1C0.801088 3.75 0.610322 3.67098 0.469669 3.53033C0.329017 3.38968 0.25 3.19891 0.25 3C0.25 2.80109 0.329017 2.61032 0.469669 2.46967C0.610322 2.32902 0.801088 2.25 1 2.25H4.12891C4.2841 1.81148 4.57139 1.43184 4.95124 1.16333C5.33109 0.894818 5.78483 0.750641 6.25 0.750641C6.71517 0.750641 7.16891 0.894818 7.54876 1.16333C7.92861 1.43184 8.2159 1.81148 8.37109 2.25H19C19.1989 2.25 19.3897 2.32902 19.5303 2.46967C19.671 2.61032 19.75 2.80109 19.75 3C19.75 3.19891 19.671 3.38968 19.5303 3.53033C19.3897 3.67098 19.1989 3.75 19 3.75V3.75ZM1 14.25H4.12891C4.2841 13.8115 4.57139 13.4318 4.95124 13.1633C5.33109 12.8948 5.78483 12.7506 6.25 12.7506C6.71517 12.7506 7.16891 12.8948 7.54876 13.1633C7.92861 13.4318 8.2159 13.8115 8.37109 14.25H19C19.1989 14.25 19.3897 14.329 19.5303 14.4697C19.671 14.6103 19.75 14.8011 19.75 15C19.75 15.1989 19.671 15.3897 19.5303 15.5303C19.3897 15.671 19.1989 15.75 19 15.75H8.37109C8.2159 16.1885 7.92861 16.5682 7.54876 16.8367C7.16891 17.1052 6.71517 17.2494 6.25 17.2494C5.78483 17.2494 5.33109 17.1052 4.95124 16.8367C4.57139 16.5682 4.2841 16.1885 4.12891 15.75H1C0.801088 15.75 0.610322 15.671 0.469669 15.5303C0.329017 15.3897 0.25 15.1989 0.25 15C0.25 14.8011 0.329017 14.6103 0.469669 14.4697C0.610322 14.329 0.801088 14.25 1 14.25ZM1 8.25H11.6289C11.7841 7.81148 12.0714 7.43184 12.4512 7.16333C12.8311 6.89482 13.2848 6.75064 13.75 6.75064C14.2152 6.75064 14.6689 6.89482 15.0488 7.16333C15.4286 7.43184 15.7159 7.81148 15.8711 8.25H19C19.1989 8.25 19.3897 8.32902 19.5303 8.46967C19.671 8.61032 19.75 8.80109 19.75 9C19.75 9.19891 19.671 9.38968 19.5303 9.53033C19.3897 9.67098 19.1989 9.75 19 9.75H15.8711C15.7159 10.1885 15.4286 10.5682 15.0488 10.8367C14.6689 11.1052 14.2152 11.2494 13.75 11.2494C13.2848 11.2494 12.8311 11.1052 12.4512 10.8367C12.0714 10.5682 11.7841 10.1885 11.6289 9.75H1C0.801088 9.75 0.610322 9.67098 0.469669 9.53033C0.329017 9.38968 0.25 9.19891 0.25 9C0.25 8.80109 0.329017 8.61032 0.469669 8.46967C0.610322 8.32902 0.801088 8.25 1 8.25Z" fill="black"/>
</svg>
