<svg width="39" height="43" viewBox="0 0 39 43" fill="none" xmlns="http://www.w3.org/2000/svg">
<path d="M35.3371 0.307007H4.39328C2.50227 0.307007 0.955078 2.20569 0.955078 4.52631V29.8421C0.955078 32.1627 2.50227 34.0614 4.39328 34.0614H16.427L13.6249 39.23C12.8684 40.6224 13.6764 42.5 15.0517 42.5H24.6787C26.054 42.5 26.8791 40.6224 26.1055 39.23L23.3034 34.0614H35.3371C37.2281 34.0614 38.7753 32.1627 38.7753 29.8421V4.52631C38.7753 2.20569 37.2281 0.307007 35.3371 0.307007ZM35.3371 25.6228H4.39328V6.63595C4.39328 5.47565 5.16688 4.52631 6.11238 4.52631H33.618C34.5635 4.52631 35.3371 5.47565 35.3371 6.63595V25.6228Z" fill="black"/>
</svg>
