<?xml version="1.0" standalone="no"?>
<!DOCTYPE svg PUBLIC "-//W3C//DTD SVG 20010904//EN"
 "http://www.w3.org/TR/2001/REC-SVG-20010904/DTD/svg10.dtd">
<svg version="1.0" xmlns="http://www.w3.org/2000/svg"
 width="156.000000pt" height="156.000000pt" viewBox="0 0 156.000000 156.000000"
 preserveAspectRatio="xMidYMid meet">
<metadata>
Created by potrace 1.10, written by Peter Selinger 2001-2011
</metadata>
<g transform="translate(0.000000,156.000000) scale(0.050000,-0.050000)"
fill="#000000" stroke="none">
<path d="M665 2533 c-142 -78 -152 -292 -19 -374 149 -91 321 6 321 181 0 162
-166 269 -302 193z"/>
<path d="M1406 2521 c-174 -106 -88 -401 118 -401 79 0 172 72 193 149 41 147
-57 291 -197 291 -27 0 -79 -18 -114 -39z"/>
<path d="M2246 2501 c-173 -105 -89 -401 114 -401 121 0 241 148 207 256 -54
170 -184 228 -321 145z"/>
<path d="M1446 1801 c-174 -106 -88 -401 118 -401 79 0 172 72 193 149 41 147
-57 291 -197 291 -27 0 -79 -18 -114 -39z"/>
<path d="M646 1781 c-174 -106 -88 -401 118 -401 79 0 172 72 193 149 41 147
-57 291 -197 291 -27 0 -79 -18 -114 -39z"/>
<path d="M2206 1761 c-173 -105 -89 -401 114 -401 140 0 238 144 197 291 -22
79 -114 149 -197 149 -27 0 -79 -18 -114 -39z"/>
<path d="M1487 1111 c-178 -77 -175 -328 5 -403 59 -25 77 -25 136 0 182 76
183 328 1 404 -80 33 -64 33 -142 -1z"/>
<path d="M705 1093 c-191 -105 -117 -413 99 -413 80 0 172 71 194 150 52 190
-130 354 -293 263z"/>
<path d="M2245 1093 c-142 -78 -152 -292 -19 -374 177 -108 368 47 311 252
-33 120 -183 183 -292 122z"/>
</g>
</svg>
