<svg width="20" height="20" viewBox="0 0 20 20" fill="none" xmlns="http://www.w3.org/2000/svg">
<path d="M12.2381 9.59375L5.31995 8.375V17.3806C5.32003 17.4785 5.33938 17.5753 5.37689 17.6657C5.41441 17.756 5.46936 17.8381 5.53859 17.9072C5.60783 17.9764 5.69001 18.0312 5.78042 18.0685C5.87084 18.1059 5.96774 18.1251 6.06557 18.125H18.0031C18.101 18.1252 18.198 18.1062 18.2886 18.0689C18.3792 18.0316 18.4615 17.9768 18.5309 17.9077C18.6002 17.8385 18.6553 17.7564 18.6929 17.666C18.7305 17.5755 18.7499 17.4786 18.7499 17.3806V14.0625L12.2381 9.59375Z" fill="#185C37"/>
<path d="M12.2381 1.875H6.06557C5.96774 1.87492 5.87084 1.89411 5.78042 1.93147C5.69001 1.96883 5.60783 2.02364 5.53859 2.09276C5.46936 2.16189 5.41441 2.24397 5.37689 2.33432C5.33938 2.42468 5.32003 2.52154 5.31995 2.61938V5.9375L12.2381 10L15.9012 11.2187L18.7499 10V5.9375L12.2381 1.875Z" fill="#21A366"/>
<path d="M5.31995 5.9375H12.2381V10H5.31995V5.9375Z" fill="#107C41"/>
<path opacity="0.1" d="M10.2712 5.125H5.31995V15.2812H10.2712C10.4685 15.2803 10.6574 15.2016 10.7971 15.0623C10.9368 14.9229 11.016 14.7342 11.0174 14.5369V5.86937C11.016 5.67209 10.9368 5.48333 10.7971 5.34399C10.6574 5.20466 10.4685 5.12598 10.2712 5.125V5.125Z" fill="black"/>
<path opacity="0.2" d="M9.86432 5.53125H5.31995V15.6875H9.86432C10.0616 15.6865 10.2506 15.6078 10.3903 15.4685C10.5299 15.3292 10.6091 15.1404 10.6106 14.9431V6.27562C10.6091 6.07834 10.5299 5.88958 10.3903 5.75024C10.2506 5.61091 10.0616 5.53223 9.86432 5.53125V5.53125Z" fill="black"/>
<path opacity="0.2" d="M9.86432 5.53125H5.31995V14.875H9.86432C10.0616 14.874 10.2506 14.7953 10.3903 14.656C10.5299 14.5167 10.6091 14.3279 10.6106 14.1306V6.27562C10.6091 6.07834 10.5299 5.88958 10.3903 5.75024C10.2506 5.61091 10.0616 5.53223 9.86432 5.53125V5.53125Z" fill="black"/>
<path opacity="0.2" d="M9.45745 5.53125H5.31995V14.875H9.45745C9.65474 14.874 9.8437 14.7953 9.98338 14.656C10.1231 14.5167 10.2022 14.3279 10.2037 14.1306V6.27562C10.2022 6.07834 10.1231 5.88958 9.98338 5.75024C9.8437 5.61091 9.65474 5.53223 9.45745 5.53125V5.53125Z" fill="black"/>
<path d="M1.99625 5.53125H9.4575C9.65514 5.53109 9.84477 5.6094 9.9847 5.74898C10.1246 5.88856 10.2034 6.07798 10.2038 6.27563V13.7244C10.2034 13.922 10.1246 14.1114 9.9847 14.251C9.84477 14.3906 9.65514 14.4689 9.4575 14.4688H1.99625C1.89836 14.4689 1.8014 14.4498 1.71091 14.4125C1.62042 14.3751 1.53817 14.3203 1.46887 14.2512C1.39956 14.1821 1.34456 14.1 1.30701 14.0096C1.26945 13.9192 1.25008 13.8223 1.25 13.7244V6.27563C1.25008 6.17774 1.26945 6.08083 1.30701 5.99043C1.34456 5.90003 1.39956 5.81792 1.46887 5.74879C1.53817 5.67966 1.62042 5.62487 1.71091 5.58754C1.8014 5.55021 1.89836 5.53109 1.99625 5.53125V5.53125Z" fill="url(#paint0_linear_217_2)"/>
<path d="M3.5625 12.4206L5.13188 9.99313L3.69437 7.57938H4.84875L5.63312 9.125C5.70562 9.27125 5.75813 9.38 5.78188 9.4525H5.7925C5.84375 9.335 5.89813 9.22188 5.955 9.11125L6.79375 7.58188H7.85625L6.38188 9.98188L7.89375 12.4225H6.76313L5.85688 10.7281C5.8148 10.6553 5.77904 10.579 5.75 10.5H5.735C5.70857 10.5769 5.67334 10.6505 5.63 10.7194L4.69688 12.4206H3.5625Z" fill="white"/>
<path d="M18.0038 1.875H12.2382V5.9375H18.75V2.61938C18.75 2.52149 18.7306 2.42458 18.693 2.33418C18.6555 2.24378 18.6005 2.16167 18.5312 2.09254C18.4619 2.02341 18.3796 1.96862 18.2891 1.93129C18.1986 1.89396 18.1017 1.87484 18.0038 1.875V1.875Z" fill="#33C481"/>
<path d="M12.2382 10H18.75V14.0625H12.2382V10Z" fill="#107C41"/>
<defs>
<linearGradient id="paint0_linear_217_2" x1="2.80875" y1="4.94625" x2="8.645" y2="15.0538" gradientUnits="userSpaceOnUse">
<stop stop-color="#18884F"/>
<stop offset="0.5" stop-color="#117E43"/>
<stop offset="1" stop-color="#0B6631"/>
</linearGradient>
</defs>
</svg>
