<svg width="14" height="13" viewBox="0 0 14 13" fill="none" xmlns="http://www.w3.org/2000/svg">
<path d="M5 10.24L6.33334 10.9067V6.51334C6.3326 6.33845 6.26316 6.17085 6.14 6.04668L1.82 1.66668H12.1933L7.88 6.04668C7.75684 6.17085 7.68741 6.33845 7.68667 6.51334L7.66667 11.6667L9 12.3333V6.78668L13.3867 2.33334C13.5621 2.15532 13.6624 1.91661 13.6667 1.66668V1.00001C13.6667 0.823199 13.5964 0.65363 13.4714 0.528606C13.3464 0.403582 13.1768 0.333344 13 0.333344H1C0.823192 0.333344 0.653622 0.403582 0.528598 0.528606C0.403574 0.65363 0.333336 0.823199 0.333336 1.00001V1.66668C0.337601 1.91661 0.43786 2.15532 0.613336 2.33334L5 6.78668V10.24Z" fill="black"/>
</svg>
