<svg width="29" height="46" viewBox="0 0 29 46" fill="none" xmlns="http://www.w3.org/2000/svg">
<path d="M24.75 0.456146H3.75C2.75544 0.456146 1.80161 0.948274 1.09835 1.82427C0.395088 2.70026 0 3.88836 0 5.1272V40.6272C0 41.2406 0.0969966 41.848 0.285452 42.4147C0.473907 42.9815 0.75013 43.4964 1.09835 43.9301C1.44657 44.3639 1.85997 44.7079 2.31494 44.9427C2.76991 45.1774 3.25754 45.2983 3.75 45.2983H24.75C25.2425 45.2983 25.7301 45.1774 26.1851 44.9427C26.64 44.7079 27.0534 44.3639 27.4016 43.9301C27.7499 43.4964 28.0261 42.9815 28.2145 42.4147C28.403 41.848 28.5 41.2406 28.5 40.6272V5.1272C28.5 3.88836 28.1049 2.70026 27.4016 1.82427C26.6984 0.948274 25.7446 0.456146 24.75 0.456146V0.456146ZM14.25 43.4298C13.005 43.4298 12 42.178 12 40.6272C12 39.0764 13.005 37.8246 14.25 37.8246C15.495 37.8246 16.5 39.0764 16.5 40.6272C16.5 42.178 15.495 43.4298 14.25 43.4298ZM25.5 35.9561H3V6.06141H25.5V35.9561Z" fill="black"/>
</svg>
