<svg width="14" height="14" viewBox="0 0 14 14" fill="red" xmlns="http://www.w3.org/2000/svg" >
    <path d="M1.5 0.5H12.5C12.7651 0.500265 13.0193 0.605707 13.2068 0.793186C13.3943 0.980665 13.4997 1.23486 13.5 1.5V12.5C13.4997 12.7651 13.3943 13.0193 13.2068 13.2068C13.0193 13.3943 12.7651 13.4997 12.5 13.5H1.5C1.23486 13.4997 0.980664 13.3943 0.793185 13.2068C0.605706 13.0193 0.500265 12.7651 0.5 12.5V1.5C0.500265 1.23486 0.605706 0.980665 0.793185 0.793186C0.980664 0.605707 1.23486 0.500265 1.5 0.5V0.5ZM1.5 1.5V3.5H12.5V1.5H1.5ZM12.5 12.5V4.5H1.5V12.5H12.5Z" fill="black"/>
</svg>
